<mxfile host="app.diagrams.net" modified="2023-08-04T04:38:40.563Z" agent="Mozilla/5.0 (Macintosh; Intel Mac OS X 10_15_7) AppleWebKit/537.36 (KHTML, like Gecko) Chrome/115.0.0.0 Safari/537.36" etag="FDEEhJ7DKoy3k8ob_KID" version="21.6.6" type="device">
  <diagram id="C5RBs43oDa-KdzZeNtuy" name="Page-1">
    <mxGraphModel dx="935" dy="586" grid="1" gridSize="10" guides="1" tooltips="1" connect="1" arrows="1" fold="1" page="1" pageScale="1" pageWidth="1169" pageHeight="827" math="0" shadow="0">
      <root>
        <mxCell id="WIyWlLk6GJQsqaUBKTNV-0" />
        <mxCell id="WIyWlLk6GJQsqaUBKTNV-1" parent="WIyWlLk6GJQsqaUBKTNV-0" />
        <mxCell id="oGTvxkCGRM0-UOw6SrDC-12" style="edgeStyle=orthogonalEdgeStyle;rounded=0;orthogonalLoop=1;jettySize=auto;html=1;entryX=0.5;entryY=1;entryDx=0;entryDy=0;endArrow=block;endFill=0;dashed=1;dashPattern=8 8;" parent="WIyWlLk6GJQsqaUBKTNV-1" source="oGTvxkCGRM0-UOw6SrDC-0" target="oGTvxkCGRM0-UOw6SrDC-4" edge="1">
          <mxGeometry relative="1" as="geometry" />
        </mxCell>
        <mxCell id="oGTvxkCGRM0-UOw6SrDC-0" value="PlayerImpl" style="swimlane;fontStyle=1;align=center;verticalAlign=top;childLayout=stackLayout;horizontal=1;startSize=26;horizontalStack=0;resizeParent=1;resizeParentMax=0;resizeLast=0;collapsible=1;marginBottom=0;whiteSpace=wrap;html=1;" parent="WIyWlLk6GJQsqaUBKTNV-1" vertex="1">
          <mxGeometry x="610" y="399" width="250" height="190" as="geometry" />
        </mxCell>
        <mxCell id="oGTvxkCGRM0-UOw6SrDC-1" value="&lt;div&gt;- firstName: String&lt;/div&gt;&lt;div&gt;- lastName: String&lt;/div&gt;&lt;div&gt;- yearOfDOB: int&lt;/div&gt;&lt;div&gt;- monthOfDOB: int&lt;/div&gt;&lt;div&gt;- dayOfDOB: int&lt;/div&gt;&lt;div&gt;- preferredPosition: Position&lt;/div&gt;&lt;div&gt;- assignedPosition: Position&lt;/div&gt;&lt;div&gt;- skillLevel: int&lt;/div&gt;&lt;div&gt;- jerseyNumber: int&lt;/div&gt;" style="text;strokeColor=none;fillColor=default;align=left;verticalAlign=top;spacingLeft=4;spacingRight=4;overflow=hidden;rotatable=0;points=[[0,0.5],[1,0.5]];portConstraint=eastwest;whiteSpace=wrap;html=1;" parent="oGTvxkCGRM0-UOw6SrDC-0" vertex="1">
          <mxGeometry y="26" width="250" height="144" as="geometry" />
        </mxCell>
        <mxCell id="oGTvxkCGRM0-UOw6SrDC-2" value="" style="line;strokeWidth=1;fillColor=none;align=left;verticalAlign=middle;spacingTop=-1;spacingLeft=3;spacingRight=3;rotatable=0;labelPosition=right;points=[];portConstraint=eastwest;strokeColor=inherit;" parent="oGTvxkCGRM0-UOw6SrDC-0" vertex="1">
          <mxGeometry y="170" width="250" height="8" as="geometry" />
        </mxCell>
        <mxCell id="oGTvxkCGRM0-UOw6SrDC-3" value="" style="text;strokeColor=none;fillColor=default;align=left;verticalAlign=top;spacingLeft=4;spacingRight=4;overflow=hidden;rotatable=0;points=[[0,0.5],[1,0.5]];portConstraint=eastwest;whiteSpace=wrap;html=1;" parent="oGTvxkCGRM0-UOw6SrDC-0" vertex="1">
          <mxGeometry y="178" width="250" height="12" as="geometry" />
        </mxCell>
        <mxCell id="oGTvxkCGRM0-UOw6SrDC-4" value="&lt;p style=&quot;margin:0px;margin-top:4px;text-align:center;&quot;&gt;&lt;i&gt;&amp;lt;&amp;lt;Interface&amp;gt;&amp;gt;&lt;/i&gt;&lt;br&gt;&lt;/p&gt;&lt;p style=&quot;margin:0px;margin-top:4px;text-align:center;&quot;&gt;&lt;i&gt;&lt;b&gt;Player&lt;/b&gt;&lt;/i&gt;&lt;/p&gt;&lt;hr size=&quot;1&quot;&gt;&lt;p style=&quot;margin:0px;margin-left:4px;&quot;&gt;getFirstName(): String&lt;/p&gt;&lt;p style=&quot;margin:0px;margin-left:4px;&quot;&gt;getLastName(): String&lt;/p&gt;&lt;p style=&quot;margin:0px;margin-left:4px;&quot;&gt;getDOB(): String&lt;/p&gt;&lt;p style=&quot;margin:0px;margin-left:4px;&quot;&gt;getAge(): Int&lt;/p&gt;&lt;p style=&quot;margin:0px;margin-left:4px;&quot;&gt;getPreferredPosition(): Position&lt;/p&gt;&lt;p style=&quot;margin:0px;margin-left:4px;&quot;&gt;getSkillLevel(): int&lt;/p&gt;&lt;p style=&quot;margin:0px;margin-left:4px;&quot;&gt;getJerseyNumber(): int&lt;/p&gt;&lt;p style=&quot;margin:0px;margin-left:4px;&quot;&gt;getAssignedPosition(): Position&lt;/p&gt;&lt;p style=&quot;margin:0px;margin-left:4px;&quot;&gt;setAssignedPosition(assignedPosition: Position): void&lt;/p&gt;&lt;p style=&quot;margin:0px;margin-left:4px;&quot;&gt;setJerseyNumber(jerseyNumber: int): void&lt;/p&gt;&lt;p style=&quot;margin:0px;margin-left:4px;&quot;&gt;toString(): String&lt;/p&gt;" style="verticalAlign=top;align=left;overflow=fill;fontSize=12;fontFamily=Helvetica;html=1;whiteSpace=wrap;" parent="WIyWlLk6GJQsqaUBKTNV-1" vertex="1">
          <mxGeometry x="610" y="60" width="250" height="230" as="geometry" />
        </mxCell>
        <mxCell id="oGTvxkCGRM0-UOw6SrDC-6" value="&lt;p style=&quot;margin:0px;margin-top:4px;text-align:center;&quot;&gt;&lt;i&gt;&amp;lt;&amp;lt;Enum&amp;gt;&amp;gt;&lt;/i&gt;&lt;br&gt;&lt;b&gt;Position&lt;/b&gt;&lt;/p&gt;&lt;hr size=&quot;1&quot;&gt;&lt;p style=&quot;margin:0px;margin-left:4px;&quot;&gt;&amp;nbsp; GOALIE,&lt;/p&gt;&lt;p style=&quot;margin:0px;margin-left:4px;&quot;&gt;&amp;nbsp; DEFENDERS,&lt;/p&gt;&lt;p style=&quot;margin:0px;margin-left:4px;&quot;&gt;&amp;nbsp; MIDFIELDERS,&lt;/p&gt;&lt;p style=&quot;margin:0px;margin-left:4px;&quot;&gt;&amp;nbsp; FORWARD,&lt;/p&gt;&lt;p style=&quot;margin:0px;margin-left:4px;&quot;&gt;&amp;nbsp; BENCH&lt;/p&gt;" style="verticalAlign=top;align=left;overflow=fill;fontSize=12;fontFamily=Helvetica;html=1;whiteSpace=wrap;" parent="WIyWlLk6GJQsqaUBKTNV-1" vertex="1">
          <mxGeometry x="1000" y="358.63" width="106" height="126.75" as="geometry" />
        </mxCell>
        <mxCell id="oGTvxkCGRM0-UOw6SrDC-7" style="edgeStyle=orthogonalEdgeStyle;rounded=0;orthogonalLoop=1;jettySize=auto;html=1;entryX=0;entryY=0.5;entryDx=0;entryDy=0;" parent="WIyWlLk6GJQsqaUBKTNV-1" source="oGTvxkCGRM0-UOw6SrDC-1" target="oGTvxkCGRM0-UOw6SrDC-6" edge="1">
          <mxGeometry relative="1" as="geometry">
            <Array as="points">
              <mxPoint x="935" y="422" />
            </Array>
          </mxGeometry>
        </mxCell>
        <mxCell id="oGTvxkCGRM0-UOw6SrDC-8" value="&lt;p style=&quot;margin:0px;margin-top:4px;text-align:center;&quot;&gt;&lt;i&gt;&amp;lt;&amp;lt;Interface&amp;gt;&amp;gt;&lt;/i&gt;&lt;br&gt;&lt;b&gt;Team&lt;/b&gt;&lt;/p&gt;&lt;hr size=&quot;1&quot;&gt;&lt;p style=&quot;margin:0px;margin-left:4px;&quot;&gt;addPlayer(firstName: String, lastName: String, year: int, month: int, day: int, preferredPosition: Position, skillLevel: int): void&lt;/p&gt;&lt;p style=&quot;margin:0px;margin-left:4px;&quot;&gt;removePlayer(player: Player): void&lt;/p&gt;&lt;p style=&quot;margin:0px;margin-left:4px;&quot;&gt;getTeamSize(): int&lt;/p&gt;&lt;p style=&quot;margin:0px;margin-left:4px;&quot;&gt;generateStartingLineup(): void&lt;/p&gt;&lt;p style=&quot;margin:0px;margin-left:4px;&quot;&gt;getAllPlayersList(): String&lt;/p&gt;&lt;p style=&quot;margin:0px;margin-left:4px;&quot;&gt;getStartingLineupList(): String&lt;/p&gt;&lt;p style=&quot;margin:0px;margin-left:4px;&quot;&gt;validateTeam(): boolean&lt;/p&gt;&lt;p style=&quot;margin:0px;margin-left:4px;&quot;&gt;getPlayerByJerseyNumber(int jerseyNumber): Player&lt;/p&gt;&lt;p style=&quot;margin:0px;margin-left:4px;&quot;&gt;&lt;br&gt;&lt;/p&gt;" style="verticalAlign=top;align=left;overflow=fill;fontSize=12;fontFamily=Helvetica;html=1;whiteSpace=wrap;" parent="WIyWlLk6GJQsqaUBKTNV-1" vertex="1">
          <mxGeometry x="110" y="60" width="280" height="210" as="geometry" />
        </mxCell>
        <mxCell id="oGTvxkCGRM0-UOw6SrDC-11" style="edgeStyle=orthogonalEdgeStyle;rounded=0;orthogonalLoop=1;jettySize=auto;html=1;entryX=0.5;entryY=1;entryDx=0;entryDy=0;endArrow=block;endFill=0;dashed=1;dashPattern=8 8;strokeWidth=1;" parent="WIyWlLk6GJQsqaUBKTNV-1" source="oGTvxkCGRM0-UOw6SrDC-10" target="oGTvxkCGRM0-UOw6SrDC-8" edge="1">
          <mxGeometry relative="1" as="geometry" />
        </mxCell>
        <mxCell id="oGTvxkCGRM0-UOw6SrDC-13" style="edgeStyle=orthogonalEdgeStyle;rounded=0;orthogonalLoop=1;jettySize=auto;html=1;entryX=0;entryY=0.5;entryDx=0;entryDy=0;" parent="WIyWlLk6GJQsqaUBKTNV-1" source="oGTvxkCGRM0-UOw6SrDC-10" target="oGTvxkCGRM0-UOw6SrDC-4" edge="1">
          <mxGeometry relative="1" as="geometry" />
        </mxCell>
        <mxCell id="oGTvxkCGRM0-UOw6SrDC-10" value="&lt;p style=&quot;margin:0px;margin-top:4px;text-align:center;&quot;&gt;&lt;b&gt;TeamImpl&lt;/b&gt;&lt;/p&gt;&lt;hr size=&quot;1&quot;&gt;&lt;p style=&quot;margin:0px;margin-left:4px;&quot;&gt;&lt;/p&gt;&lt;div&gt;&amp;nbsp;- SIZE_TEAM_MIN: int&lt;/div&gt;&lt;div&gt;&amp;nbsp;- SIZE_TEAM_MAX: int&lt;/div&gt;&lt;div&gt;&amp;nbsp;- AGE_LIMIT: int&lt;/div&gt;&lt;div&gt;&amp;nbsp;- SIZE_GOALIE: int&lt;/div&gt;&lt;div&gt;&amp;nbsp;- SIZE_DEFENDER: int&lt;/div&gt;&lt;div&gt;&amp;nbsp;- SIZE_MIDFIELDER: int&lt;/div&gt;&lt;div&gt;&amp;nbsp;- SIZE_FORWARD: int&lt;/div&gt;&lt;div&gt;&amp;nbsp;- players: List&amp;lt;Player&amp;gt;&lt;/div&gt;&lt;div&gt;&amp;nbsp;- JNumberSet: Set&amp;lt;Integer&amp;gt;&lt;/div&gt;&lt;div&gt;&amp;nbsp;- teamSize: int&lt;/div&gt;&lt;hr&gt;&lt;p style=&quot;margin:0px;margin-left:4px;&quot;&gt;- sortPlayersByLastName(): void&lt;/p&gt;&lt;p style=&quot;margin:0px;margin-left:4px;&quot;&gt;- sortPlayersBySkill(): void&lt;/p&gt;&lt;p style=&quot;margin:0px;margin-left:4px;&quot;&gt;- assignPositions(): void&lt;/p&gt;&lt;p style=&quot;margin:0px;margin-left:4px;&quot;&gt;- assignJerseyNumbers(): void&lt;/p&gt;" style="verticalAlign=top;align=left;overflow=fill;fontSize=12;fontFamily=Helvetica;html=1;whiteSpace=wrap;" parent="WIyWlLk6GJQsqaUBKTNV-1" vertex="1">
          <mxGeometry x="110" y="399" width="280" height="250" as="geometry" />
        </mxCell>
        <mxCell id="oGTvxkCGRM0-UOw6SrDC-14" style="edgeStyle=orthogonalEdgeStyle;rounded=0;orthogonalLoop=1;jettySize=auto;html=1;exitX=0.5;exitY=1;exitDx=0;exitDy=0;" parent="WIyWlLk6GJQsqaUBKTNV-1" source="oGTvxkCGRM0-UOw6SrDC-8" target="oGTvxkCGRM0-UOw6SrDC-8" edge="1">
          <mxGeometry relative="1" as="geometry" />
        </mxCell>
        <mxCell id="_a6w9RB2a_Aay6_StjZW-0" value="1" style="text;html=1;align=center;verticalAlign=middle;resizable=0;points=[];autosize=1;strokeColor=none;fillColor=none;" parent="WIyWlLk6GJQsqaUBKTNV-1" vertex="1">
          <mxGeometry x="970" y="399" width="30" height="30" as="geometry" />
        </mxCell>
        <mxCell id="_a6w9RB2a_Aay6_StjZW-1" value="1..*" style="text;html=1;align=center;verticalAlign=middle;resizable=0;points=[];autosize=1;strokeColor=none;fillColor=none;" parent="WIyWlLk6GJQsqaUBKTNV-1" vertex="1">
          <mxGeometry x="565" y="115" width="40" height="30" as="geometry" />
        </mxCell>
      </root>
    </mxGraphModel>
  </diagram>
</mxfile>
